# xmcd
#
# Track frame offsets:
#	183
#	15408
#	31988
#	45508
#	58268
#	73678
#	88210
#	102565
#	115478
#	127135
#	141128
#	154308
#	167318
#	181483
#	194350
#	205125
#	217243
#	230625
#	243218
#	273385
#	276600
#	290295
#
# Disc length: 4037
#
# Revision: 1
# Processed by: cddbd v1.5.1PL0 Copyright (c) Steve Scherf et al.
# Submitted via: ExactAudioCopy v0.95a5
# Normalized: r0:TRMNUM
#
DISCID=590fc316
DTITLE=Various Artist - 
DYEAR=1998
DGENRE=Blues
TTITLE0=Big Road Blues - Johnson, Tommy 
TTITLE1=Canned Heat Blues - Johnson, Tommy 
TTITLE2=Devil Got My Woman - James, Skip 
TTITLE3=Hard Time Killin' Floor Blues - James, Skip 
TTITLE4=Baby Please Don't Go - Big Joe Williams Trio 
TTITLE5=Highway 49 - Big Joe Williams Trio 
TTITLE6=Matchbox Blues Take 2 - Jefferson, Blind Lemon 
TTITLE7=That Black Snake Moan Take 2 - Jefferson, Blind Lemon 
TTITLE8=Mr. Furry's Blues - Lewis, Furry 
TTITLE9=Kassie Jones Pt. 1 - Lewis, Furry 
TTITLE10=Early Morning Blues - Blake, Blind
TTITLE11=Southern Rag - Blind Blake
TTITLE12=Broke Down Engine Blues - McTell, Blind Willie 
TTITLE13=Dark Night Blues - McTell, Blind Willie    
TTITLE14=Sic' Em Dogs On - White, Bukka       
TTITLE15=Parchman Farm Blues - White, Bukka 
TTITLE16=Stack O' Lee Blues - Hurt, Mississippi John 
TTITLE17=Candy Man Blues - Hurt, Mississippi John        
TTITLE18=Walkin' Blues - Son House 
TTITLE19=Special Rider Blues - Son House 
TTITLE20=Banty Rooster Blues - Patton, Charley 
TTITLE21=Stone Pony Blues - Patton, Charley  
EXTD=
EXTT0=
EXTT1=
EXTT2=
EXTT3=
EXTT4=
EXTT5=
EXTT6=
EXTT7=
EXTT8=
EXTT9=
EXTT10=
EXTT11=
EXTT12=
EXTT13=
EXTT14=
EXTT15=
EXTT16=
EXTT17=
EXTT18=
EXTT19=
EXTT20=
EXTT21=
PLAYORDER=
